<svg xmlns="http://www.w3.org/2000/svg" width="192" height="192">
  <path d="M0 0h192v192H0z" fill="#161022" />
  <path
    d="m91.45 40.902 2.568.01 2.67.026 2.705.013q3.303.018 6.607.049c-2.55 2.55-4.587 2.823-8.062 3.75-11.424 3.435-19.722 9.963-25.735 20.355-5.778 11.295-7.367 24.289-4.047 36.766 1.509 3.806 3.53 7.32 5.602 10.844C75 115 75 115 75 117l3 1 3.438 3.54c8.932 8.351 19.713 12.297 31.867 11.91 9.934-1.208 19.29-4.545 26.695-11.45l2.625-2.312c3.21-3.633 5.783-7.6 8.375-11.688 1.194 2.879.97 4.099.031 7.137-3.195 7.409-6.565 13.844-12.031 19.863l-1.648 1.89C130.087 144.736 121.02 148.75 111 152l-3 1c-3.537.257-7.08.231-10.625.25l-2.91.063c-6.396.034-11.558-.87-17.465-3.313l-2.68-1.07C57.956 141.068 49.072 128.687 43 112c-1.408-4.953-1.221-10.076-1.25-15.187l-.062-2.713c-.089-15.238 6.892-27.67 17.386-38.366C66.25 48.804 74.581 44.96 84 42c2.824-.941 4.53-1.117 7.45-1.098"
    fill="#9e80ca" />
  <path
    d="M91 39c2.037.229 4.08.41 6.125.563l3.32.253L103 40v1l-3.078.078c-16.411.597-31.58 5.295-43.113 17.692C44.59 73.837 41.638 88.03 43 107c1.197 7.958 4.608 15.319 9 22l1.418 2.234c6.664 9.545 18.468 17.7 29.902 20.292 11.915 2.107 25.728 1.767 36.68-3.526l2.363-1.062C134.68 140.81 144.253 129.843 149 117h1c.312 5.922-.29 9.581-3 15l-.902 1.96c-3.343 6.211-9.292 12.071-15.098 16.04-2.5.625-2.5.625-5 1-1.817.93-3.548 1.966-5.3 3.012-3.768 2.19-6.312 2.988-10.7 2.988a94 94 0 0 0-4.125 1c-6.618 1.529-13.69 2.299-19.875-1v2c-5.662-1.477-5.662-1.477-7.375-4.125L78 153l-2.312.188c-3.268-.228-3.503-.916-5.688-3.188l-2.937-.875C63.358 147.765 62.344 146.1 60 143l-2.5-1.375c-2.605-1.693-3.21-2.594-4.625-5.25-1.52-3.632-1.52-3.632-4.875-4.375-1-1.75-1-1.75-2-4l-1.5-2.125c-1.815-3.478-2.358-6.72-2.973-10.57-.442-2.563-.442-2.563-2.527-5.305-1.57-9.894-1.095-20.01-1-30l-4 3c1.463-4.523 3.936-7.413 7-11a198 198 0 0 0 3-5l3-4 1.25-2.312C51.454 55.766 56.011 51.14 61 48h2l.813-2.375C65 43 65 43 68 41l2 1a80 80 0 0 0 5.125-1.937C80.331 38.079 85.697 36.348 91 39M44 64l2 1-3 2z"
    fill="#3d3756" />
  <path
    d="m111 73 3.563.375L118 74c1.188 1.938 1.188 1.938 2 4l2.063.813L124 80c.625 3.375.625 3.375 1 7 .956 2.336.956 2.336 2 4l-2 3c-.39 1.99-.732 3.99-1 6l-2-1-.523 1.68c-1.304 3.36-2.283 5.736-5.618 7.367-6.26 1.457-11.73.648-17.859-1.047l-1-6-5-1 .125-2.687c.07-3.289.07-3.289-1.25-6L90 89l2-3c.708-2.321 1.38-4.654 2-7h3l.438-1.875C98 75 98 75 99 73c1.96-.703 1.96-.703 4.375-1.25l2.398-.578C108 71 108 71 111 73"
    fill="#5c4d7b" />
  <path
    d="M99 45c-4.385 5.638-4.385 5.638-7.316 7.363-3.218 1.963-5.783 4.368-8.434 7.012l-1.496 1.422C78.726 63.8 77.567 65.816 77 70c-1.121 2.027-1.121 2.027-2.437 3.938-4.002 6.228-4.819 10.499-3.754 17.792C71 94 71 94 70 97h2c1.757 4.504 2.193 8.176 2 13l1.793.262c2.816.942 3.71 2.223 5.52 4.55C87.09 121.666 94.552 124.472 103 127h3l2.234.36c6.404.994 9.49.425 14.766-3.36v2c2.947-1.434 5.829-2.901 8.672-4.535l2.89-1.653 2.754-1.605c2.824-1.27 4.629-1.456 7.684-1.207-3.398 7.964-12.624 11.81-20.234 14.91-10.72 3.766-21.276 3.189-31.657-1.293C79.766 123.677 72.272 114.997 67 101c-2.992-13.457-1.788-26.737 5.574-38.52C77.801 55.33 89.012 41.67 99 45"
    fill="#494266" />
  <path
    d="M91 39c2.037.229 4.08.41 6.125.563l3.32.253L103 40v1l-3.078.078c-16.942.616-31.55 5.633-43.496 18.223-1.5 1.654-1.5 1.654-2.426 3.699h-4l-.793 2.148c-1.28 3.023-2.788 5.69-4.52 8.477l-1.738 2.852C40.417 79.754 37.637 81.18 34 83c1.463-4.523 3.936-7.413 7-11a198 198 0 0 0 3-5l3-4 1.25-2.312C51.454 55.766 56.011 51.14 61 48h2l.813-2.375C65 43 65 43 68 41l2 1a80 80 0 0 0 5.125-1.937C80.331 38.079 85.697 36.348 91 39M44 64l2 1-3 2z"
    fill="#302744" />
  <path
    d="m111 81 2 1v6l1.875.375C117 89 117 89 119 91l3-4v6h-2l-2 2-1-2h-3l-2 6-1-2c-3.683.6-7.345 1.248-11 2v-3l3 1v-5c-3.118.646-3.118.646-4 3h-2v-3h-2v4h2l1 6-6-2 .125-2.687C92.001 94.027 91.386 91.946 90 89l3-3v6a85 85 0 0 0 2-7v3h2v-3h2l1 4h3v2h2l-1-9 6 1z"
    fill="#816aa8" />
  <path
    d="M95 92h2v3h2l1-3h3v5l-3 1 1.863-.508 2.45-.617 2.425-.633C109 96 109 96 112 98l2-6 2.313.5c2.723.591 2.723.591 5.687.5v3h-2l-1 4h-4l-1 2h4l-1 3c-4.516.077-8.59.102-13-1v-2h-2l1 3 15 1v1c-7.243 2.004-12.757 2.004-20 0-.575-3.735-1-7.213-1-11h-2z"
    fill="#594b77" />
  <path
    d="M75 110c3.41 1.137 4.068 2.064 6.25 4.813 5.836 6.82 13.284 9.653 21.75 12.187h3l2.234.36c6.404.994 9.49.425 14.766-3.36v2c2.947-1.434 5.829-2.901 8.672-4.535.954-.545 1.908-1.09 2.89-1.653l2.754-1.605c2.824-1.27 4.629-1.456 7.684-1.207-1.706 3.412-5.609 4.412-8.937 6q-2.204 1.057-4.403 2.125l-1.98.945c-1.866.932-1.866.932-3.68 2.93-8.867 2.705-20.466 4.244-29 0l-1.937-1.5c-2.54-1.847-5.068-2.615-8.063-3.5v-2l-2.312-.187C82 121 82 121 80.375 118.625L79 116l-1.625-1.625C76 113 76 113 75 110"
    fill="#362e4c" />
  <path
    d="m62 50-1 3-3 1c-2.621 2.852-4.425 5.12-5 9h-3l-.793 2.148c-1.28 3.023-2.788 5.69-4.52 8.477l-1.738 2.852C40.417 79.754 37.637 81.18 34 83c1.463-4.523 3.936-7.413 7-11a198 198 0 0 0 3-5l3-4 1.25-2.312C51.453 55.769 55.778 50 62 50M44 64l2 1-3 2z"
    fill="#322a47" />
  <path
    d="M149 117h1c.968 8.711-2.768 13.86-8.004 20.566-3.447 4.076-5.87 6.684-10.996 8.434l-2.562 1.188c-2.73.91-3.757.611-6.438-.188l1.871-.996C135.938 139.227 144.064 129.949 149 117"
    fill="#393250" />
  <path
    d="M96 47c-1.021 2.693-1.7 3.824-4.223 5.3-3.25 1.99-5.846 4.401-8.527 7.075l-1.496 1.422C78.726 63.8 77.564 65.815 77 70c-1.121 2.098-1.121 2.098-2.437 4.063C72.849 76.646 71.34 79.203 70 82h-1c-.25-6.625-.25-6.625 2-10a309 309 0 0 0 2-7c1-2 1-2 4-3 1.539-1.632 1.539-1.632 3.063-3.625C83.669 54.106 90.035 47 96 47"
    fill="#362f4c" />
  <path
    d="m141 119 3 1c-9.815 8.088-18.78 13.383-31.75 13.25l-2.324.023c-5.673-.02-5.673-.02-7.926-2.273l2.965-.148c13.305-.39 13.305-.39 25.035-5.852q2.567-1.364 5.188-2.625c3.123-1.37 3.123-1.37 5.812-3.375"
    fill="#484265" />
  <path
    d="M122 148v2h-2v2c-5.327 2.325-9.306 3.312-15.117 3.008-1.975-.15-1.975-.15-3.883.992-7.165.716-13.276-.597-20-3v-1l2.288.063c3.487.085 6.974.136 10.462.187l3.598.102c7.417.08 13.393-.824 20.333-3.486C120 148 120 148 122 148"
    fill="#4c4469" />
  <path
    d="M95 92h2v3h2l1-3h3v5l-3 1 5 1v2h-4c.435 2.086.435 2.086 2 4 2.665.467 4.95.696 7.625.75l2.14.09c1.745.07 3.49.118 5.235.16v1c-7.243 2.004-12.757 2.004-20 0-.575-3.735-1-7.213-1-11h-2z"
    fill="#50446d" />
  <path
    d="m94 85 1 3h2v-3h2l.375 2.938L100 91l2 1c-1.375 1.5-1.375 1.5-3 3h-2v-3h-2v4h2l1 6-6-2 .125-2.687C92.001 94.027 91.386 91.946 90 89l3-3v6c1.21-3.105 1.21-3.105 1-7"
    fill="#6e5a91" />
  <path
    d="m104 82 7 1c-.087 1.46-.195 2.918-.312 4.375l-.176 2.46C110 92 110 92 107 94l-.875 2.063C105 98 105 98 102.375 98.75L100 99v-3l3 1c-.344-2.473-.344-2.473-1-5l-2-1v-2h3v2h2z"
    fill="#816aa8" />
  <path
    d="m124 87 3 2-.937 2.125c-1.096 2.964-1.627 5.752-2.063 8.875l-2-1-4 7H99l4-1-3-4 2-1 3 2v2l2 1 1-2 2.25.5c2.94.62 2.94.62 6.75.5l1-2h-4l1-3h4l1-3h2v-3h2z"
    fill="#78629c" />
  <path
    d="M110.375 72.563C115 79.5 115 79.5 115 82l-8 2c-1.125-3.75-1.125-3.75 0-6l-3-1 1-2-6-1v-1c8.131-2.571 8.131-2.571 11.375-.437"
    fill="#574875" />
  <path
    d="M45 117c1.572 2.358 2.876 4.628 4.188 7.125C52.62 130.359 56.87 136.056 62 141c-3.104-.337-4.65-.668-6.95-2.848l-1.737-2.214A79 79 0 0 0 50 132h-2c-1.905-5.103-3.426-9.463-3-15"
    fill="#443e60" />
  <path
    d="M94 79h2l-1 5h2v-4h3v3h3v5l-3 1-1-4h-2v3l-2 1c-1.134 2.017-1.134 2.017-2 4-.946-3.085-1.016-5.493-.625-8.687l.273-2.387C93 80 93 80 94 79"
    fill="#4c4268" />
  <path
    d="m68 83 2 1c.45 2.18.45 2.18.688 4.875l.261 2.68C71 94 71 94 70 97h2c1.591 4.177 2.213 7.532 2 12l-3-1c-3.846-8.12-3.29-16.224-3-25"
    fill="#393250" />
  <path
    d="M75 45c-2.072 1.586-4.155 3.103-6.332 4.543C62.84 53.407 58.315 57.499 54 63c-.64-1.8-.64-1.8-1-4 4-5.667 4-5.667 8-7a283 283 0 0 0 5-5c3.435-2.29 4.985-2.178 9-2"
    fill="#463f62" />
  <path
    d="m95.313 38.938 2.244.302q2.723.371 5.443.76v1l-3.113.113C91.557 41.485 83.966 42.317 76 45v-3c6.985-3.736 11.661-4.163 19.313-3.062"
    fill="#443c5f" />
  <path d="m105 97 2 3c3.403.677 3.403.677 7 1 1.34.309 2.677.63 4 1l-1 3c-4.516.077-8.59.102-13-1-.043-2-.04-4 0-6z"
    fill="#5e4e7e" />
  <path
    d="M138 135c0 4.643-2.598 7.548-5.75 10.813-3.352 1.769-6.484 1.873-10.25 2.187l1.715-1.281a700 700 0 0 0 6.847-5.219l2.317-1.781A54 54 0 0 0 138 135"
    fill="#4f466d" />
  <path
    d="M145 132h2c-3.404 7.473-9.746 12.895-16 18l-2-1 2.484-2.195 3.266-2.93 1.633-1.437c2.692-2.43 4.935-4.732 6.883-7.805z"
    fill="#2e2440" />
  <path d="m110 76 3 1c1.188 2.563 1.188 2.563 2 5l-8 2-1-4h5z" fill="#4c4168" />
  <path d="m74 61 1 2-2 3-.875 3.375C70.972 73.091 69.591 75.15 67 78c.444-5.622 2.902-12.902 7-17" fill="#524971" />
  <path d="M99.688 129.375 102 130v2l15 1v1c-8.357.321-15.223.218-23-3 3-2 3-2 5.688-1.625" fill="#615483" />
  <path d="M121 87h1v6h-2l-2 2-1-2h-3l-2 3-1-7 8 2z" fill="#725f96" />
  <path d="m107 96 2.313 1c2.678 1.174 2.678 1.174 5.687 1l-1 3h-7c-.562-1.937-.562-1.937-1-4z" fill="#4a4266" />
  <path d="m98 75 1 3 4-1a101 101 0 0 1-2 6l-2 1 1-4h-3v4h-2z" fill="#77619c" />
  <path d="m44 67 1 2-3 3c.875-3.875.875-3.875 2-5m-4 6 1 2c-1.762 3.617-3.643 5.8-7 8 1.37-3.995 3.257-6.8 6-10"
    fill="#281d38" />
  <path d="m114 84 4 1v2l3 1-2 4-2-1v-2h-2z" fill="#4e456b" />
  <path d="m98 105 20 1v1c-7.243 2.004-12.757 2.004-20 0z" fill="#483a61" />
  <path d="M97 85h2l.375 2.938L100 91l2 1c-1.375 1.5-1.375 1.5-3 3h-2z" fill="#665688" />
  <path
    d="m50 63 3 1-1.023 1.61-1.352 2.14-1.336 2.11C48.081 71.864 47.016 73.891 46 76c-1.017-2.655-1.13-3.692-.004-6.36l1.441-2.39 1.434-2.422z"
    fill="#4a4266" />
  <path d="M87 41h19c-2.762 2.762-5.207 2.579-9 3v-2H87z" fill="#8269a9" />
  <path
    d="M94 79h2a583 583 0 0 1-.375 5.875c-.07 1.09-.14 2.181-.21 3.305C95 91 95 91 93 93c-.946-3.085-1.016-5.493-.625-8.687l.273-2.387C93 80 93 80 94 79"
    fill="#564773" />
  <path d="M120 153c-2 3-2 3-3.875 3.688C114 157 114 157 110 157l-1-2c3.83-1.802 6.781-2.196 11-2" fill="#312946" />
  <path d="M84 39c-5.75 3-5.75 3-8 3v3h-5c7.282-7.906 7.282-7.906 13-6" fill="#393250" />
  <path d="M45 117c5 7.5 5 7.5 5 11h-4z" fill="#4e456c" />
  <path d="m106 86 1 2h3l-1 5-3 1z" fill="#554b74" />
  <path d="m77 66 1 2c-.996 1.945-.996 1.945-2.437 4.125l-1.434 2.195L73 76l-1-2c1.377-3.148 2.562-5.562 5-8"
    fill="#2e2441" />
  <path d="m145 126 1 4c-2.437 2.75-2.437 2.75-5 5l-2-1z" fill="#4b4368" />
  <path d="M149 117h1v8l-4 1z" fill="#443a5d" />
  <path d="M104 102h9l-1 3-1.75-.5c-2.517-.645-2.517-.645-6.25-.5z" fill="#4d4269" />
  <path d="M106 83h5v5h-4z" fill="#76629b" />
  <path
    d="M115 152c-3.833 2.706-6.325 3.326-11 3 3.818-3.028 6.186-4.494 11-3m-61-19q1.724 1.432 3.438 2.875l1.933 1.617C61 139 61 139 62 141c-2.312-.187-2.312-.187-5-1-3-4.034-3-4.034-3-7"
    fill="#4e466c" />
  <path
    d="M131 126c2.063.438 2.063.438 4 1-1.264.7-2.537 1.384-3.812 2.063l-2.145 1.16C127 131 127 131 124 130l2.938-1.437c2.867-1.265 2.867-1.265 4.062-2.563"
    fill="#50486e" />
  <path d="M114 92h3l-1 5h-3z" fill="#463f62" />
  <path d="M110 74h7l-3 2 2 2-1 3c-3-3.75-3-3.75-3-6z" fill="#7c65a2" />
  <path d="M135 124v2c-2.974 1.24-5.853 2.3-9 3 4.677-5 4.677-5 9-5" fill="#403b5b" />
  <path d="M100 92h3v5h-3c-.562-1.937-.562-1.937-1-4z" fill="#474063" />
  <path d="m106 80 5 1-1 3-4-1z" fill="#443e60" />
</svg>